<svg xmlns="http://www.w3.org/2000/svg" viewBox="0 0 600 155" fill="#cc0000">
  <!-- C -->
  <path d="M94.5,2.5c-25,0-47,8.5-62,24C18,41,10.5,60.5,10.5,77.5c0,18,7,36.5,22,51.5c14.5,14.5,35,23,59,23c13,0,26-3.5,37-9.5c4-2.5,5-4,5-6c0-3-5-12-8.5-15.5c-1.5-1.5-2.5-2-4-2c-1,0-2.5,0.5-4.5,1.5c-8,4.5-17,7-26.5,7c-14,0-27-5.5-36.5-15.5C44,102,38.5,90,38.5,77.5c0-12,5-24,14-33.5C62,34,74.5,28.5,88,28.5c9.5,0,19,3,27.5,8c2,1.5,3.5,2,5,2c1.5,0,3-1,4.5-3c3-4,7-11.5,7-15c0-2.5-1.5-4.5-5-7C116,6.5,105.5,2.5,94.5,2.5z"/>
  <!-- a -->
  <path d="M187,43c-12,0-23,3.5-31.5,10c-10,8-15.5,19.5-15.5,34c0,23,16.5,42,44,42c6,0,11.5-1,16.5-3v20c0,3.5,1,5.5,3,7c2.5,2,7,3,12,3c5,0,9.5-1,12-3c2-1.5,3-3.5,3-7V80C231,57,213.5,43,187,43z M200.5,103c-4.5,2.5-9.5,3.5-14.5,3.5c-14,0-22.5-9-22.5-22c0-13,8.5-21.5,22-21.5c5.5,0,10.5,1.5,15,4.5V103z"/>
  <!-- n -->
  <path d="M290,43c-11,0-20.5,4-28,11V55c0-3.5-1-5.5-3-7c-2.5-2-7-3-12-3c-5,0-9.5,1-12,3c-2,1.5-3,3.5-3,7v61c0,3.5,1,5.5,3,7c2.5,2,7,3,12,3c5,0,9.5-1,12-3c2-1.5,3-3.5,3-7V82c0-12,8.5-19,21-19c12,0,19.5,7,19.5,19v34c0,3.5,1,5.5,3,7c2.5,2,7,3,12,3c5,0,9.5-1,12-3c2-1.5,3-3.5,3-7V78C328,56.5,313,43,290,43z"/>
  <!-- o -->
  <path d="M393.5,43c-27,0-46.5,18-46.5,43c0,25,19.5,43,46.5,43c27,0,46.5-18,46.5-43C440,61,420.5,43,393.5,43z M393.5,107c-14,0-22-9.5-22-21c0-11.5,8-21,22-21c14,0,22,9.5,22,21C415.5,97.5,407.5,107,393.5,107z"/>
  <!-- n -->
  <path d="M500,43c-11,0-20.5,4-28,11V55c0-3.5-1-5.5-3-7c-2.5-2-7-3-12-3c-5,0-9.5,1-12,3c-2,1.5-3,3.5-3,7v61c0,3.5,1,5.5,3,7c2.5,2,7,3,12,3c5,0,9.5-1,12-3c2-1.5,3-3.5,3-7V82c0-12,8.5-19,21-19c12,0,19.5,7,19.5,19v34c0,3.5,1,5.5,3,7c2.5,2,7,3,12,3c5,0,9.5-1,12-3c2-1.5,3-3.5,3-7V78C538,56.5,523,43,500,43z"/>
</svg>
